<svg xmlns="http://www.w3.org/2000/svg" viewBox="0 0 128 128">
  <defs>
    <linearGradient id="brainGrad" x1="0%" y1="0%" x2="100%" y2="100%">
      <stop offset="0%" style="stop-color:#3b82f6"/>
      <stop offset="100%" style="stop-color:#8b5cf6"/>
    </linearGradient>
  </defs>
  <rect width="128" height="128" rx="24" fill="url(#brainGrad)"/>
  <g fill="#fff">
    <path d="M64 24c-16 0-30 8-38 22-4-4-8-8-12-10-4-2-10-2-14 2 2 6 6 12 12 16-6 4-10 10-12 18-2 8 0 18 6 24 4 4 8 6 14 6s10-2 14-6c6-6 8-16 6-24-2-8-6-14-12-18 6-4 10-10 12-16-4-4-10-4-14-2-4 2-8 6-12 10 8-14 22-22 38-22z"/>
    <ellipse cx="40" cy="48" rx="8" ry="6"/>
    <ellipse cx="88" cy="48" rx="8" ry="6"/>
    <circle cx="48" cy="80" r="4"/>
    <circle cx="80" cy="80" r="4"/>
  </g>
</svg>